<?xml version="1.0" standalone="no"?><!DOCTYPE svg PUBLIC "-//W3C//DTD SVG 1.1//EN" "http://www.w3.org/Graphics/SVG/1.1/DTD/svg11.dtd"><svg width="16" height="16" viewBox="0 0 16 16" version="1.1" xmlns="http://www.w3.org/2000/svg" xmlns:xlink="http://www.w3.org/1999/xlink"><defs><style type="text/css"><![CDATA[
@font-face { font-family: ifont; src: url(http://at.alicdn.com/t/font_1442373896_4754455.eot?#iefix) format(embedded-opentype), url(http://at.alicdn.com/t/font_1442373896_4754455.woff) format(woff), url(http://at.alicdn.com/t/font_1442373896_4754455.ttf) format(truetype), url(http://at.alicdn.com/t/font_1442373896_4754455.svg#ifont) format(svg); }

]]></style></defs><g class="transform-group"><g transform="scale(0.015625, 0.015625)"><path d="M823.13728 923.907072 217.186304 923.907072c-21.830656 0-39.519232-17.687552-39.519232-39.519232L177.667072 541.892608c0-21.810176 17.687552-39.498752 39.519232-39.498752l65.864704 0L283.051008 317.97248c0-130.944 106.155008-237.11232 237.109248-237.11232 130.957312 0 237.113344 106.16832 237.113344 237.11232l0 184.421376 65.86368 0c21.830656 0 39.519232 17.687552 39.519232 39.498752l0 342.496256C862.656512 906.21952 844.96896 923.907072 823.13728 923.907072M480.647168 728.525824l0 76.824576c0 21.829632 17.693696 39.519232 39.513088 39.519232 21.830656 0 39.519232-17.688576 39.519232-39.519232l0-76.824576c23.528448-13.70112 39.519232-38.900736 39.519232-68.076544 0-43.649024-35.377152-79.038464-79.038464-79.038464-43.65824 0-79.035392 35.38944-79.035392 79.038464C441.125888 689.625088 457.116672 714.825728 480.647168 728.525824M678.235136 317.97248c0-87.296-70.777856-158.07488-158.07488-158.07488-87.307264 0-158.071808 70.77888-158.071808 158.07488l0 184.421376 316.146688 0L678.235136 317.97248z" fill="#eb4f38"></path></g></g></svg>