<?xml version="1.0" standalone="no"?><!DOCTYPE svg PUBLIC "-//W3C//DTD SVG 1.1//EN" "http://www.w3.org/Graphics/SVG/1.1/DTD/svg11.dtd"><svg width="16" height="16" viewBox="0 0 16 16" version="1.1" xmlns="http://www.w3.org/2000/svg" xmlns:xlink="http://www.w3.org/1999/xlink"><defs><style type="text/css"><![CDATA[
@font-face { font-family: ifont; src: url(http://at.alicdn.com/t/font_1442373896_4754455.eot?#iefix) format(embedded-opentype), url(http://at.alicdn.com/t/font_1442373896_4754455.woff) format(woff), url(http://at.alicdn.com/t/font_1442373896_4754455.ttf) format(truetype), url(http://at.alicdn.com/t/font_1442373896_4754455.svg#ifont) format(svg); }

]]></style></defs><g class="transform-group"><g transform="scale(0.015625, 0.015625)"><path d="M764.4221 136.2227H654.656512c-90.7694 0-164.652 73.857-164.652 164.651v164.65203200000002H146.97984c-22.6447 0-41.1628 18.4904-41.1628 41.1628v411.62752c0 22.6191 18.518 41.1638 41.1628 41.1638h466.51392c22.6437 0 41.1628-18.5446 41.1628-41.1638V506.688512c0-22.6724-18.519-41.1628-41.1628-41.1628h-13.720576V300.873728c0-30.2817 24.5996-54.8844 54.8844-54.8844h109.765632c30.2828 0 54.8854 24.6016 54.8854 54.8844v164.65203200000002h109.76665600000001V300.873728C929.0742 210.0797 855.1916 136.2227 764.4221 136.2227zM435.1201 849.7132H325.353472l23.8766-119.3615c-14.4179-9.9164-23.8766-26.5308-23.8766-45.2905 0-30.336 24.5473-54.8844 54.8833-54.8844 30.336 0 54.8833 24.5484 54.8833 54.8844 0 18.7587-9.4607 35.3741-23.8776 45.2905L435.1201 849.7132z" fill="#a9b7b7"></path></g></g></svg>